<svg width="200" height="200" viewBox="0 0 200 200" fill="none" xmlns="http://www.w3.org/2000/svg">
  <rect width="200" height="200" fill="#1E293B"/>
  <path d="M100 70C89.5075 70 81 78.5075 81 89C81 99.4925 89.5075 108 100 108C110.492 108 119 99.4925 119 89C119 78.5075 110.492 70 100 70ZM100 102C92.8203 102 87 96.1797 87 89C87 81.8203 92.8203 76 100 76C107.18 76 113 81.8203 113 89C113 96.1797 107.18 102 100 102Z" fill="#94A3B8"/>
  <path d="M71.9297 130C73.0625 130 74.1328 129.469 74.8125 128.531L93.1875 104.531C94.6094 102.656 94.2266 99.9375 92.3516 98.5156C90.4766 97.0938 87.7578 97.4766 86.3359 99.3516L71.5469 118.906L66.8125 112.531C65.3906 110.656 62.6719 110.273 60.7969 111.695C58.9219 113.117 58.5391 115.836 59.9609 117.711L68.6484 128.711C69.3281 129.586 70.3984 130 71.5312 130H71.9297Z" fill="#94A3B8"/>
  <path d="M140 70H130C127.791 70 126 71.7909 126 74C126 76.2091 127.791 78 130 78H140C142.209 78 144 76.2091 144 74C144 71.7909 142.209 70 140 70Z" fill="#94A3B8"/>
  <path d="M140 84H130C127.791 84 126 85.7909 126 88C126 90.2091 127.791 92 130 92H140C142.209 92 144 90.2091 144 88C144 85.7909 142.209 84 140 84Z" fill="#94A3B8"/>
  <path d="M140 98H130C127.791 98 126 99.7909 126 102C126 104.209 127.791 106 130 106H140C142.209 106 144 104.209 144 102C144 99.7909 142.209 98 140 98Z" fill="#94A3B8"/>
  <path d="M154 50H46C42.6863 50 40 52.6863 40 56V144C40 147.314 42.6863 150 46 150H154C157.314 150 160 147.314 160 144V56C160 52.6863 157.314 50 154 50ZM154 144H46V56H154V144Z" fill="#94A3B8"/>
</svg>
